<svg xmlns="http://www.w3.org/2000/svg" version="1.1" xmlns:xlink="http://www.w3.org/1999/xlink" xmlns:svgjs="http://svgjs.dev/svgjs" width="1000" height="1000" viewBox="0 0 1000 1000"><rect width="1000" height="1000" fill="#000000"></rect><g transform="matrix(0.7,0,0,0.7,150.0000000000001,106.25)"><svg viewBox="0 0 320 360" data-background-color="#4b91f1" preserveAspectRatio="xMidYMid meet" height="1125" width="1000" xmlns="http://www.w3.org/2000/svg" xmlns:xlink="http://www.w3.org/1999/xlink"><g id="tight-bounds" transform="matrix(1,0,0,1,0,0)"><svg viewBox="0 0 320 360" height="360" width="320"><g><svg></svg></g><g><svg viewBox="0 0 320 360" height="360" width="320"><g><path xmlns="http://www.w3.org/2000/svg" d="M20.961 227.22l3.726 4.658-1.863-6.056c-0.466-2.795-3.726 0.466-1.863 1.398M25.153 224.425c1.397 2.329 2.795 4.658 2.795 6.987 0 3.261 2.795 4.658 5.123 5.589-3.261-3.726-5.124-13.974-7.918-12.576M204.017 26.929c7.918 0 15.371-0.932 23.756 0.931 20.495 5.124 37.729 15.371 49.374 29.811l32.606 52.169c1.397 13.042 4.192 27.482 3.726 43.319 3.261 0 2.795-4.658 6.521-5.59-3.726 9.316-5.59 20.961-6.521 34.469-2.329-7.453 0-18.632 0.466-24.687-3.261 5.124-5.124 1.397-5.124-0.932 0.466-3.726-1.397-3.261-2.795-4.658-5.124-4.658-8.384-9.782-12.11-17.7 2.329-6.055 2.795-14.905-4.658-19.563-2.329-1.397-5.124-3.726-6.521-7.453-1.863-5.124-5.124-11.179-4.193-19.097 0.466-2.329-6.987 5.124-11.179 1.863-18.166-12.576-36.332-27.016-58.224-39.127-11.645 0-20.029-4.192-24.221-9.316-3.726-4.658-0.932-10.713 4.658-11.179 3.261 0 6.987-0.932 9.782 0.932 0.466-1.863 2.329-4.192 4.657-4.192M157.904 16.215l0.932 0.466c4.658 0.932 6.987 7.453 12.11 5.124 0 3.261 0.466 6.521-0.466 8.85-1.397 3.726-5.59 3.726-8.85 3.726-31.208-1.863-49.374 11.179-68.471 22.358-5.124 3.261-10.713 5.59-14.906 9.782-20.029 18.632-41.921 35.866-47.045 70.335l-4.192 38.195c-0.466 4.192-5.124 8.384-4.192 13.508l3.26 22.824c-3.261-3.261-5.124 0.932-4.192 2.795 0.466 1.397 2.329 6.055 5.124 1.863 3.726 6.987 7.453 20.495 12.576 26.55 15.837 18.632 36.332 35.4 53.101 52.169 4.192-0.932 7.453-0.932 8.384-3.727 1.397 2.795-1.397 5.59-3.726 6.056 7.453 4.658 15.837 8.85 27.016 9.781 14.44 0.932 27.948 3.261 40.524 6.522 6.521-1.863 13.042-2.795 20.029-3.261 2.329 0 3.726-3.726 6.521-4.658l0.466-4.658c2.795 4.192 2.329-1.397 0.466-4.192 3.261 2.795 4.192 5.124 5.589 6.987 0-1.397 3.726-6.521 3.727-0.466l0.931-6.055c1.397-0.932 1.863 5.124 3.261 0.931 1.397-4.192 4.192-0.932 6.987-2.329-0.932 1.863-0.466 5.59 2.794 3.261l3.727-3.261c2.329 5.59 6.055 3.261 7.918 2.329 20.495-13.042 40.99-28.413 60.553-43.784l-0.466 6.055 2.329-7.453c2.329 2.329 4.192 0.466 5.124-0.931 2.795-4.658 6.521-9.316 12.577-13.508-7.453 20.029-16.303 35.866-27.482 48.908l-4.658 5.59c0 3.261-0.932 7.453-4.658 7.918-1.863 0.466-5.59-0.932-8.384 1.863-1.397 1.863 3.261 5.59-0.466 2.795-3.261-2.329-6.521 0-10.248 0.932-2.795 0.932 1.863 3.726 2.795 5.589 0.932 1.863 1.863 3.726 1.398 6.056l-5.124-5.59c-6.055 3.261-9.782 9.316-14.906 13.974-2.329 1.863-1.397 5.124-1.397 7.918-3.261 0-6.987-0.932-8.85 0.932-1.397 1.863-0.932 4.658-0.932 7.453-4.658-0.466-5.124-7.453-9.315-6.056-4.192 0.932-8.85 1.397-12.577 3.727 2.795 5.59-4.658 2.329-3.726 3.26-6.987-4.192-13.042-7.453-20.495-4.658-15.837-5.124-35.4-2.795-49.84-0.931 0-2.329 0.466-4.658-0.466-5.124-0.932 2.329-3.726 1.397-3.26 1.397-8.85-6.055-17.7-9.782-27.016-14.905-8.384 0.932-16.303-3.261-18.632-5.59-6.521-6.055-13.974-2.795-20.029-4.192-13.042-3.261-17.7-16.769-19.098-26.084-0.932-4.658-4.658-6.521-6.055-6.056-6.055-19.563-15.371-37.263-22.824-55.429-1.863-4.658-1.397-9.316-1.397-14.44 2.329 0.932 4.658 0.466 4.192-2.794-2.329-15.371-7.918-27.016-13.974-38.195 3.261-15.837 3.726-34.469 11.179-48.443 6.521-12.576 18.632-19.098 27.016-29.811 2.795-3.726 2.795-8.85 5.59-12.11 9.316-9.316 18.632-19.098 28.879-27.482 4.658-3.726 10.247 0 17.234-1.397 2.329-8.384 11.645-15.837 20.495-13.508 3.726 0.932 11.179-8.85 13.508-9.782 3.726-1.397 1.863 3.726 1.863 6.987 8.85-6.987 20.961-10.713 32.14-14.906" fill="#77d4fc" fill-rule="nonzero" stroke="none" stroke-width="1" stroke-linecap="butt" stroke-linejoin="miter" stroke-miterlimit="10" stroke-dasharray="" stroke-dashoffset="0" font-family="none" font-weight="none" font-size="none" text-anchor="none" style="mix-blend-mode: normal" data-fill-palette-color="tertiary"></path></g><g transform="matrix(1,0,0,1,64,109.83527585007278)"><svg viewBox="0 0 192 140.32944829985445" height="140.32944829985445" width="192"><g><svg viewBox="0 0 192 140.32944829985445" height="140.32944829985445" width="192"><g><svg viewBox="0 0 192 140.32944829985445" height="140.32944829985445" width="192"><g transform="matrix(1,0,0,1,0,83.54661118638974)"><svg viewBox="0 0 192 56.78283711346471" height="56.78283711346471" width="192"><g><svg viewBox="0 0 192 56.78283711346471" height="56.78283711346471" width="192"><g><svg viewBox="0 0 192 34.76282376841036" height="34.76282376841036" width="192"><g transform="matrix(1,0,0,1,0,0)"><svg width="192" viewBox="2.549999952316284 -35 196.88999938964844 35.650001525878906" height="34.76282376841036" data-palette-color="#77d4fc"><path d="M32.1-10.15L35.45-7.35Q33-3.75 29.23-1.55 25.45 0.65 20.3 0.65L20.3 0.65Q15.4 0.65 11.33-1.63 7.25-3.9 4.9-7.95 2.55-12 2.55-17.1L2.55-17.1Q2.55-22.35 4.85-26.43 7.15-30.5 11-32.75 14.85-35 19.3-35L19.3-35Q22.9-35 25.68-33.7 28.45-32.4 30.35-30.05L30.35-30.05 30.4-34.3 35.05-34.3 35.05-23.15 31.75-22.85Q28.15-30.85 20.05-30.85L20.05-30.85Q16.8-30.85 14.03-29.18 11.25-27.5 9.58-24.38 7.9-21.25 7.9-17.15L7.9-17.15Q7.9-13.25 9.55-10.18 11.2-7.1 14.03-5.35 16.85-3.6 20.3-3.6L20.3-3.6Q24.35-3.6 27.18-5.35 30-7.1 32.1-10.15L32.1-10.15ZM66.9-11.9L71.75-11.9 71.75 0 39.6 0 39.6-4.15 46.05-4.15 46.05-30.15 39.6-30.15 39.6-34.3 57.6-34.3 57.6-30.15 51.2-30.15 51.2-4.15 66.9-4.15 66.9-11.9ZM93.9-30.15L87.4-30.15 87.4-4.15 93.9-4.15 93.9 0 75.8 0 75.8-4.15 82.25-4.15 82.25-30.15 75.8-30.15 75.8-34.3 93.9-34.3 93.9-30.15ZM141.64-34.3L141.64-30.15 135.39-30.15 135.39 0.3 132.84 0.35 108.79-27 108.79-4.15 114.94-4.15 114.94 0 97.44 0 97.44-4.15 103.89-4.15 103.89-30.15 97.44-30.15 97.44-34.3 108.79-34.3 130.59-8.95 130.59-30.15 124.14-30.15 124.14-34.3 141.64-34.3ZM162.44-30.15L155.94-30.15 155.94-4.15 162.44-4.15 162.44 0 144.34 0 144.34-4.15 150.79-4.15 150.79-30.15 144.34-30.15 144.34-34.3 162.44-34.3 162.44-30.15ZM196.09-10.15L199.44-7.35Q196.99-3.75 193.21-1.55 189.44 0.65 184.29 0.65L184.29 0.65Q179.39 0.65 175.31-1.63 171.24-3.9 168.89-7.95 166.54-12 166.54-17.1L166.54-17.1Q166.54-22.35 168.84-26.43 171.14-30.5 174.99-32.75 178.84-35 183.29-35L183.29-35Q186.89-35 189.66-33.7 192.44-32.4 194.34-30.05L194.34-30.05 194.39-34.3 199.04-34.3 199.04-23.15 195.74-22.85Q192.14-30.85 184.04-30.85L184.04-30.85Q180.79-30.85 178.01-29.18 175.24-27.5 173.56-24.38 171.89-21.25 171.89-17.15L171.89-17.15Q171.89-13.25 173.54-10.18 175.19-7.1 178.01-5.35 180.84-3.6 184.29-3.6L184.29-3.6Q188.34-3.6 191.16-5.35 193.99-7.1 196.09-10.15L196.09-10.15Z" opacity="1" transform="matrix(1,0,0,1,0,0)" fill="#ffffff" class="undefined-text-0" data-fill-palette-color="primary" id="text-0"></path></svg></g></svg></g><g transform="matrix(1,0,0,1,0,39.83555406399187)"><svg viewBox="0 0 192 16.947283049472837" height="16.947283049472837" width="192"><g transform="matrix(1,0,0,1,0,0)"><svg width="192" viewBox="1.9000000953674316 -32.29999923706055 369.8600158691406 32.64999771118164" height="16.947283049472837" data-palette-color="#0718c4"><path d="M16.1-32.3Q21.15-32.3 24.85-29.9L24.85-29.9 24.05-26.25 23.6-26.15Q20.25-28.95 15.9-28.95L15.9-28.95Q11.15-28.95 8.6-25.68 6.05-22.4 6.05-16.1L6.05-16.1Q6.05-9.75 8.6-6.4 11.15-3.05 15.8-3.05L15.8-3.05Q18-3.05 20.18-3.85 22.35-4.65 24.15-6.1L24.15-6.1 24.65-5.85 24.3-2.05Q19.95 0.35 15.45 0.35L15.45 0.35Q9 0.35 5.45-3.83 1.9-8 1.9-15.75L1.9-15.75Q1.9-23.7 5.6-28 9.3-32.3 16.1-32.3L16.1-32.3ZM46.35-3.35L46.65-3 46.3 0 30.5 0 30.75-9.65 30.5-32.05 34.6-32.05 34.35-10 34.5-3.35 46.35-3.35ZM55.55-32.05L55.3-10 55.5 0 51.45 0 51.7-9.65 51.45-32.05 55.55-32.05ZM89.69-32.15L89.44-9.4 89.54 0 85.34 0 68.74-25.65 68.49-25.65 68.44-10.55 68.49 0 64.89 0 65.04-9.5 64.94-32.05 69.09-32.05 85.64-6.4 85.99-6.4 85.94-31.85 89.69-32.15ZM103.09-32.05L102.84-10 103.04 0 98.99 0 99.24-9.65 98.99-32.05 103.09-32.05ZM122.99-32.3Q128.04-32.3 131.74-29.9L131.74-29.9 130.94-26.25 130.49-26.15Q127.14-28.95 122.79-28.95L122.79-28.95Q118.04-28.95 115.49-25.68 112.94-22.4 112.94-16.1L112.94-16.1Q112.94-9.75 115.49-6.4 118.04-3.05 122.69-3.05L122.69-3.05Q124.89-3.05 127.06-3.85 129.24-4.65 131.04-6.1L131.04-6.1 131.54-5.85 131.19-2.05Q126.84 0.35 122.34 0.35L122.34 0.35Q115.89 0.35 112.34-3.83 108.79-8 108.79-15.75L108.79-15.75Q108.79-23.7 112.49-28 116.19-32.3 122.99-32.3L122.99-32.3ZM158.23-32.05L168.93 0 164.83 0 164.08-3.2 162.28-8.7 155.08-8.85 148.58-8.7 146.63-3.4 145.83 0 141.83 0 153.58-32.05 158.23-32.05ZM155.43-12L161.18-12.1 155.98-27.9 155.63-27.9 149.83-12.1 155.43-12ZM184.48-32.1Q189.18-32.1 191.73-29.68 194.28-27.25 194.28-22.7L194.28-22.7Q194.28-17.35 191.11-14.3 187.93-11.25 182.33-11.25L182.33-11.25 178.53-11.25 178.53-10 178.73 0 174.68 0 174.93-9.65 174.68-32.05 184.48-32.1ZM183.83-14.5Q186.93-15 188.56-17 190.18-19 190.18-22.35L190.18-22.35Q190.18-28.55 183.58-28.8L183.58-28.8 178.73-28.65 178.58-14.6 183.83-14.5ZM210.48-32.1Q215.18-32.1 217.73-29.68 220.28-27.25 220.28-22.7L220.28-22.7Q220.28-17.35 217.1-14.3 213.93-11.25 208.33-11.25L208.33-11.25 204.53-11.25 204.53-10 204.73 0 200.68 0 200.93-9.65 200.68-32.05 210.48-32.1ZM209.83-14.5Q212.93-15 214.55-17 216.18-19 216.18-22.35L216.18-22.35Q216.18-28.55 209.58-28.8L209.58-28.8 204.73-28.65 204.58-14.6 209.83-14.5ZM246.37-32.3Q251.42-32.3 255.12-29.9L255.12-29.9 254.32-26.25 253.87-26.15Q250.52-28.95 246.17-28.95L246.17-28.95Q241.42-28.95 238.87-25.68 236.32-22.4 236.32-16.1L236.32-16.1Q236.32-9.75 238.87-6.4 241.42-3.05 246.07-3.05L246.07-3.05Q248.27-3.05 250.45-3.85 252.62-4.65 254.42-6.1L254.42-6.1 254.92-5.85 254.57-2.05Q250.22 0.35 245.72 0.35L245.72 0.35Q239.27 0.35 235.72-3.83 232.17-8 232.17-15.75L232.17-15.75Q232.17-23.7 235.87-28 239.57-32.3 246.37-32.3L246.37-32.3ZM279.42-32.05L279.72-31.65 279.42-28.55 273.82-28.85 270.57-28.85 270.42-10 270.57 0 266.52 0 266.82-9.65 266.57-28.85 263.32-28.85 257.62-28.55 257.37-28.95 257.67-32.05 279.42-32.05ZM308.37-32.05L308.32-15.75 308.27-12.15Q308.37-6.25 305.17-2.95 301.97 0.35 296.07 0.35L296.07 0.35Q290.42 0.35 287.39-2.8 284.37-5.95 284.47-11.7L284.47-11.7 284.52-16.05 284.47-32.05 288.42-32.05 288.27-12.2Q288.22-7.7 290.27-5.43 292.32-3.15 296.37-3.15L296.37-3.15Q300.42-3.15 302.52-5.3 304.62-7.45 304.57-11.7L304.57-11.7 304.37-32.05 308.37-32.05ZM333.86-15L334.21-14.65 334.21-12.15 322.16-10.4 321.76-10.8 321.76-13.3 333.86-15ZM371.76-32.05L360.01 0 355.36 0 344.66-32.05 348.76-32.05 349.51-28.8 357.66-4.05 357.96-4.05 366.96-28.6 367.76-32.05 371.76-32.05Z" opacity="1" transform="matrix(1,0,0,1,0,0)" fill="#ffffff" class="undefined-text-1" data-fill-palette-color="secondary" id="text-1"></path></svg></g></svg></g></svg></g></svg></g><g transform="matrix(1,0,0,1,56.763059554595884,0)"><svg viewBox="0 0 78.47388089080823 78.47388089080823" height="78.47388089080823" width="78.47388089080823"><g><svg xmlns="http://www.w3.org/2000/svg" xmlns:xlink="http://www.w3.org/1999/xlink" version="1.1" x="0" y="0" viewBox="4.5 4.5 91 91" enable-background="new 0 0 100 100" xml:space="preserve" height="78.47388089080823" width="78.47388089080823" class="icon-icon-0" data-fill-palette-color="accent" id="icon-0"><g fill="#0718c4" data-fill-palette-color="accent"><path d="M54.559 45c0-0.653-0.724-1.406-1.938-2.012L51.5 42.427v5.146l1.121-0.561C53.835 46.406 54.559 45.653 54.559 45z" fill="#ffffff" data-fill-palette-color="accent"></path><path d="M47.379 32.988c-1.213 0.606-1.938 1.359-1.938 2.012s0.725 1.406 1.938 2.012l1.121 0.561v-5.146L47.379 32.988z" fill="#ffffff" data-fill-palette-color="accent"></path><path d="M52.621 67.013c1.214-0.606 1.938-1.359 1.938-2.013s-0.724-1.406-1.938-2.013L51.5 62.427v5.146L52.621 67.013z" fill="#ffffff" data-fill-palette-color="accent"></path><path d="M45.441 55c0 0.653 0.725 1.406 1.938 2.013l1.121 0.561v-5.146l-1.121 0.561C46.166 53.594 45.441 54.347 45.441 55z" fill="#ffffff" data-fill-palette-color="accent"></path><path d="M91.5 32H69c-0.542 0-1-0.458-1-1V8.5c0-2.206-1.794-4-4-4H36c-2.206 0-4 1.794-4 4V31c0 0.542-0.458 1-1 1H8.5c-2.206 0-4 1.794-4 4v28c0 2.206 1.794 4 4 4H31c0.542 0 1 0.458 1 1v22.5c0 2.206 1.794 4 4 4h28c2.206 0 4-1.794 4-4V69c0-0.542 0.458-1 1-1h22.5c2.206 0 4-1.794 4-4V36C95.5 33.794 93.706 32 91.5 32zM53.963 60.304c3.129 1.564 3.596 3.614 3.596 4.696s-0.467 3.132-3.596 4.696L51.5 70.928V80c0 0.828-0.671 1.5-1.5 1.5s-1.5-0.672-1.5-1.5v-7.572l-2.829 1.414C45.456 73.949 45.227 74 45.001 74c-0.55 0-1.08-0.304-1.343-0.829-0.37-0.741-0.07-1.643 0.671-2.013l4.171-2.085v-8.146l-2.463-1.231c-3.129-1.564-3.596-3.614-3.596-4.696s0.467-3.132 3.596-4.696l2.463-1.231v-8.145l-2.463-1.231c-3.129-1.564-3.596-3.614-3.596-4.696s0.467-3.131 3.596-4.696l2.463-1.231V17.5c0-0.829 0.671-1.5 1.5-1.5s1.5 0.671 1.5 1.5v10.073l2.829-1.415c0.743-0.368 1.642-0.07 2.013 0.671 0.37 0.741 0.07 1.642-0.671 2.013L51.5 30.927v8.146l2.463 1.231c3.129 1.564 3.596 3.614 3.596 4.696s-0.467 3.131-3.596 4.696L51.5 50.927v8.145L53.963 60.304z" fill="#ffffff" data-fill-palette-color="accent"></path></g></svg></g></svg></g><g></g></svg></g></svg></g></svg></g></svg></g><defs></defs></svg><rect width="320" height="360" fill="none" stroke="none" visibility="hidden"></rect></g></svg></g></svg>