<svg xmlns="http://www.w3.org/2000/svg" version="1.1" xmlns:xlink="http://www.w3.org/1999/xlink" xmlns:svgjs="http://svgjs.dev/svgjs" width="1000" height="1000" viewBox="0 0 1000 1000"><rect width="1000" height="1000" fill="#ffffff"></rect><g transform="matrix(0.7,0,0,0.7,149.57575757575756,252.30255000000002)"><svg viewBox="0 0 396 280" data-background-color="#ffffff" preserveAspectRatio="xMidYMid meet" height="707" width="1000" xmlns="http://www.w3.org/2000/svg" xmlns:xlink="http://www.w3.org/1999/xlink"><g id="tight-bounds" transform="matrix(1,0,0,1,0.2400000000000091,0.13999999999998636)"><svg viewBox="0 0 395.52 279.72" height="279.72" width="395.52"><g><svg viewBox="0 0 395.52 279.72" height="279.72" width="395.52"><g><svg viewBox="0 0 395.52 279.72" height="279.72" width="395.52"><g><svg viewBox="0 0 395.52 279.72" height="279.72" width="395.52"><g><svg viewBox="0 0 395.52 279.72" height="279.72" width="395.52"><g transform="matrix(1,0,0,1,81.22880246045696,47.21133399503262)"><svg viewBox="0 0 233.06239507908606 185.2973320099348" height="185.2973320099348" width="233.06239507908606"><g><circle r="82" cx="116.53119753954303" cy="92.6486660049674" fill="#4b91f1" data-fill-palette-color="accent"></circle><svg xmlns="http://www.w3.org/2000/svg" xmlns:xlink="http://www.w3.org/1999/xlink" version="1.1" x="34.95935926186291" y="34.95935926186291" viewBox="9.951000213623047 9.944000244140625 79.86399841308594 79.86200714111328" enable-background="new 0 0 100 100" xml:space="preserve" height="115.37861348620898" width="163.14367655536023" class="icon-o-0" data-fill-palette-color="quaternary" id="o-0"><path fill="none" d="M50.857 78.341l1.237-56.924c0-1.408-1.069-2.053-2.062-2.053-0.993 0-2.062 0.645-2.062 2.062l1.237 55.669v1.247c0 1.138 0.425 1.753 0.825 1.753C50.432 80.094 50.857 79.48 50.857 78.341z"></path><path d="M63.193 36.565V9.944h-26.62v26.62H9.951v26.62h26.622v26.622h26.62V63.185h26.622v-26.62H63.193zM48.557 63.418l-0.171-7.706c0.508-1.284 1.508-2.058 2.663-2.82l-0.17 7.846c-0.276 0.789-0.72 1.479-1.439 2.06C49.126 62.995 48.835 63.203 48.557 63.418zM53.511 50.057c-0.724 0.724-1.577 1.275-2.401 1.809-1.765 1.142-3.585 2.321-3.868 5.126-1.599-1.398-1.688-3.683-1.688-4.168 0-1.309 1.418-2.341 2.919-3.435 1.918-1.397 4.092-2.98 4.092-5.639v-4.037c1.722 1.636 2.712 3.576 2.811 5.539C55.466 47.058 54.803 48.765 53.511 50.057zM51.205 45.684c-0.651 1.122-1.809 2.009-2.978 2.864l-0.41-18.415c0.226-0.073 0.456-0.144 0.686-0.213 1.25-0.375 2.635-0.791 3.085-1.876L51.205 45.684zM48.267 29.129c-1.326 0.397-2.696 0.807-3.167 1.944-0.321 0.775-0.157 1.748 0.513 2.99l1.179 1.964v4.346c-3.385-3.157-4.88-8.24-3.335-11.716l0.018-0.049c0.619-2.064 2.894-3.143 4.821-3.143 1.209 0 2.62 0.468 2.62 1.787C50.915 28.263 49.915 28.636 48.267 29.129zM47.621 71.868c-0.921-1.301-1.296-2.603-1.116-3.883 0.237-1.683 1.441-3.282 3.392-4.501l0.039-0.027c1.962-1.57 2.187-3.769 2.214-6.322 1.291 1.531 1.449 3.136 1.327 4.279-0.219 2.044-1.526 4.13-3.158 5.064C47.946 67.664 47.657 69.233 47.621 71.868zM52.325 76.213c-0.227 0.856-0.811 1.72-1.581 2.046 0.547-1.482 0.902-2.918 0.98-4.819C52.487 74.225 52.558 75.335 52.325 76.213zM49.678 19.005c0.993 0 2.062 0.645 2.062 2.053l-0.119 5.451c-0.373-1.141-1.614-1.867-3.326-1.867-0.197 0-0.397 0.014-0.599 0.034l-0.08-3.608C47.616 19.65 48.685 19.005 49.678 19.005zM49.678 79.735c-0.4 0-0.825-0.614-0.825-1.753v-1.247l-0.162-7.311c0.27-0.966 0.833-1.627 2.017-2.22 0.01-0.006 0.02-0.013 0.03-0.019l-0.193 8.9c-0.204 0.869-0.324 1.159-0.676 2.04 0 0-0.221 0.79-0.063 0.964 0.158 0.174 0.286 0.129 0.286 0.129 0.064 0 0.126-0.015 0.189-0.02C50.12 79.55 49.896 79.735 49.678 79.735z" fill="#ffffff" data-fill-palette-color="quaternary"></path><path d="M49.619 27.612C52.506 26.375 46.732 26.375 49.619 27.612z" fill="#ffffff" data-fill-palette-color="quaternary"></path></svg></g></svg></g><path d="M88.426 109.311L86.339 114.494 85.949 114.337 85.989 113.437C86.057 112.43 85.488 111.684 84.283 111.198V111.198L64.164 103.096C63.645 102.887 63.204 102.778 62.842 102.768 62.477 102.765 62.09 102.968 61.68 103.378V103.378L60.797 104.207 60.408 104.051 63.462 96.467 85.404 96.856 69.141 82.366 72.258 74.624 72.648 74.781 72.635 75.508C72.615 76.075 72.731 76.517 72.984 76.834 73.237 77.152 73.626 77.416 74.152 77.628V77.628L94.706 85.905C95.225 86.114 95.657 86.21 96.002 86.191 96.345 86.178 96.718 85.965 97.121 85.553V85.553L97.8 84.91 98.19 85.067 94.251 94.848 93.861 94.691 93.832 93.721C93.827 93.144 93.707 92.729 93.471 92.476 93.233 92.23 92.854 92.002 92.335 91.793V91.793L83.49 88.231 72.284 83.631 91.764 101.023 90.976 102.979 65.016 102.48 74.842 106.308 84.743 110.296C85.318 110.527 85.816 110.627 86.238 110.596 86.664 110.573 87.055 110.343 87.411 109.905V109.905L88.037 109.154ZM111.215 67.148L98.918 84.342 98.577 84.098 98.83 83.075C98.951 82.572 98.932 82.153 98.771 81.816 98.614 81.475 98.308 81.141 97.853 80.815V80.815L79.862 67.949C79.401 67.619 78.996 67.424 78.647 67.362 78.288 67.303 77.873 67.431 77.4 67.749V67.749L76.521 68.324 76.18 68.08 87.983 51.577 93.434 55.157 93.184 55.506 88.89 54.672C88.331 54.583 87.843 54.561 87.425 54.607 87.009 54.662 86.637 54.919 86.307 55.38V55.38L81.877 61.575 91.827 68.691 94.461 65.009C94.791 64.548 94.922 64.113 94.854 63.704 94.784 63.286 94.609 62.837 94.329 62.358V62.358L93.45 60.685 93.694 60.343 99.888 64.774 99.644 65.115 97.703 64.771C97.144 64.683 96.662 64.669 96.257 64.732 95.85 64.785 95.482 65.042 95.152 65.503V65.503L92.519 69.185 103.233 76.849 108.21 69.89C108.536 69.434 108.67 68.994 108.614 68.569 108.552 68.14 108.361 67.691 108.04 67.224V67.224L105.808 63.49 106.058 63.14ZM120.245 58.953L112.498 65.929 112.217 65.617 112.651 64.769C113.079 63.89 112.935 63.052 112.217 62.255V62.255L97.417 45.818C96.663 44.981 95.845 44.749 94.962 45.123V45.123L94.074 45.466 93.793 45.154 102.104 37.67C104.328 35.668 106.616 34.356 108.97 33.734 111.324 33.122 113.629 33.193 115.887 33.948 118.15 34.709 120.253 36.168 122.197 38.327V38.327C124.181 40.531 125.4 42.836 125.854 45.242 126.304 47.644 126.055 50.015 125.106 52.358 124.153 54.695 122.533 56.894 120.245 58.953ZM100.757 40.027L118.325 59.539 119.677 58.322C121.187 56.962 122.133 55.568 122.515 54.14 122.906 52.712 122.679 51.096 121.835 49.292 120.99 47.488 119.451 45.345 117.218 42.864V42.864C114.988 40.388 113.021 38.636 111.315 37.608 109.609 36.58 108.036 36.172 106.595 36.384 105.154 36.606 103.7 37.376 102.235 38.696V38.696ZM142.233 42.208L133.015 47.995 132.792 47.64 133.331 46.9C133.704 46.43 133.877 46.003 133.848 45.619 133.826 45.232 133.665 44.802 133.368 44.328V44.328L121.607 25.595C121.306 25.116 120.994 24.781 120.67 24.591 120.348 24.391 119.883 24.365 119.274 24.511V24.511L118.374 24.675 118.151 24.319 127.369 18.532 127.592 18.888 127.062 19.622C126.689 20.092 126.513 20.521 126.536 20.908 126.561 21.286 126.724 21.714 127.025 22.194V22.194L138.785 40.927C139.083 41.401 139.395 41.728 139.721 41.909 140.052 42.086 140.518 42.12 141.118 42.011V42.011L142.01 41.852ZM157.61 36.508V36.508C155.084 37.565 152.582 38.008 150.106 37.838 147.633 37.658 145.373 36.805 143.326 35.278 141.277 33.745 139.636 31.506 138.404 28.561V28.561C137.469 26.324 137.009 24.205 137.024 22.205 137.049 20.208 137.454 18.371 138.24 16.691 139.022 15.021 140.12 13.554 141.534 12.291 142.949 11.028 144.581 10.009 146.431 9.235V9.235C147.919 8.613 149.358 8.21 150.747 8.026 152.142 7.84 153.512 7.816 154.855 7.955V7.955L157.021 12.693 156.625 12.859 153.363 10.551C152.899 10.167 152.425 9.838 151.942 9.563 151.461 9.295 150.944 9.154 150.389 9.14V9.14C149.925 9.118 149.483 9.14 149.063 9.207 148.65 9.272 148.154 9.425 147.576 9.667V9.667C146.07 10.296 144.866 11.277 143.963 12.608 143.065 13.93 142.633 15.677 142.668 17.851 142.703 20.025 143.397 22.728 144.749 25.962V25.962C146.089 29.164 147.501 31.549 148.987 33.116 150.467 34.686 151.978 35.614 153.521 35.9 155.066 36.193 156.595 36.023 158.107 35.39V35.39C158.943 35.041 159.581 34.702 160.022 34.373 160.471 34.048 160.892 33.666 161.286 33.227V33.227C161.697 32.809 161.948 32.347 162.039 31.839 162.133 31.323 162.187 30.788 162.201 30.233V30.233L162.312 25.68 162.699 25.518 164.925 31.152C164.073 32.188 163.043 33.171 161.836 34.102 160.636 35.03 159.227 35.832 157.61 36.508ZM172.049 31.297L166.285 32.273 166.215 31.86 167.194 31.298C167.716 30.987 168.1 30.645 168.348 30.272 168.602 29.898 168.779 29.401 168.877 28.783V28.783L173.299 2.641 176.847 2.04 189.53 25.458C189.857 26.031 190.186 26.456 190.516 26.731 190.853 27.005 191.333 27.204 191.956 27.328V27.328L192.486 27.411 192.557 27.825 181.943 29.622 181.873 29.208 182.467 28.884C183.015 28.569 183.317 28.196 183.373 27.768 183.43 27.346 183.329 26.87 183.07 26.339V26.339L180.081 20.662 170.808 22.232 169.804 28.454C169.711 29.098 169.73 29.595 169.864 29.944 169.998 30.3 170.376 30.536 170.998 30.654V30.654L171.979 30.883ZM173.276 7.592L170.962 21.344 179.693 19.866ZM214.062 28.781L193.491 27.931 193.508 27.512 194.411 27.209C195.013 27.007 195.4 26.747 195.573 26.427 195.74 26.107 195.835 25.667 195.858 25.108V25.108L196.771 3.009C196.795 2.443 196.727 1.99 196.567 1.65 196.415 1.304 196.06 1.019 195.502 0.796V0.796L194.627 0.419 194.645 0 205.44 0.446 205.422 0.866 204.65 1.174C204.102 1.351 203.721 1.612 203.507 1.957 203.299 2.302 203.184 2.754 203.161 3.313V3.313L202.164 27.439 208.685 27.709C209.723 27.752 210.499 27.531 211.013 27.045 211.533 26.56 212.036 25.847 212.522 24.907V24.907L214.326 21.42 214.746 21.437ZM239.131 36.591V36.591C236.543 35.696 234.382 34.36 232.649 32.584 230.924 30.803 229.807 28.661 229.297 26.158 228.79 23.649 229.058 20.887 230.1 17.87V17.87C230.893 15.578 231.961 13.691 233.305 12.21 234.653 10.738 236.18 9.637 237.884 8.908 239.58 8.183 241.376 7.82 243.273 7.82 245.169 7.82 247.065 8.148 248.961 8.803V8.803C250.485 9.33 251.826 9.988 252.985 10.776 254.149 11.567 255.187 12.461 256.097 13.459V13.459L254.556 18.436 254.149 18.296 253.254 14.401C253.164 13.806 253.03 13.245 252.852 12.718 252.673 12.198 252.381 11.748 251.976 11.369V11.369C251.645 11.042 251.3 10.765 250.942 10.535 250.591 10.308 250.119 10.092 249.527 9.887V9.887C247.984 9.354 246.433 9.283 244.874 9.674 243.323 10.062 241.836 11.078 240.415 12.722 238.993 14.367 237.709 16.846 236.564 20.158V20.158C235.43 23.439 234.895 26.159 234.959 28.317 235.017 30.473 235.526 32.172 236.486 33.413 237.444 34.661 238.697 35.553 240.246 36.088V36.088C241.103 36.384 241.804 36.557 242.352 36.605 242.903 36.661 243.472 36.657 244.059 36.592V36.592C244.643 36.554 245.138 36.377 245.544 36.059 245.958 35.737 246.355 35.373 246.735 34.969V34.969L249.851 31.647 250.247 31.784 248.155 37.469C246.829 37.673 245.406 37.721 243.886 37.611 242.372 37.504 240.787 37.164 239.131 36.591ZM266.809 50.184L249.132 39.628 249.347 39.267 250.285 39.432C250.91 39.541 251.375 39.497 251.68 39.298 251.979 39.097 252.272 38.755 252.559 38.275V38.275L263.899 19.285C264.189 18.799 264.345 18.368 264.367 17.993 264.398 17.616 264.222 17.196 263.838 16.734V16.734L263.249 15.987 263.464 15.626 272.74 21.165 272.525 21.526 271.699 21.428C271.133 21.323 270.674 21.371 270.321 21.572 269.974 21.776 269.657 22.118 269.37 22.599V22.599L256.99 43.331 262.593 46.677C263.486 47.21 264.273 47.385 264.956 47.203 265.645 47.025 266.427 46.638 267.302 46.043V46.043L270.551 43.839 270.911 44.054ZM276.962 58.624L268.588 51.672 268.856 51.349 269.727 51.63C270.291 51.838 270.75 51.869 271.106 51.722 271.466 51.58 271.825 51.293 272.183 50.863V50.863L286.312 33.846C286.674 33.41 286.895 33.009 286.974 32.642 287.063 32.274 286.943 31.823 286.615 31.291V31.291L286.178 30.487 286.446 30.164 294.82 37.117 294.552 37.44 293.689 37.165C293.126 36.957 292.664 36.924 292.303 37.066 291.952 37.208 291.595 37.496 291.233 37.932V37.932L277.104 54.949C276.747 55.38 276.533 55.778 276.463 56.144 276.398 56.514 276.511 56.968 276.802 57.504V57.504L277.23 58.302ZM282.722 65.218L278.53 60.32 278.849 60.047 280.085 60.831C280.521 61.124 280.967 61.225 281.423 61.133 281.884 61.037 282.33 60.804 282.76 60.436V60.436L298.234 47.19C298.551 46.515 298.778 45.997 298.915 45.634 299.056 45.276 299.144 44.933 299.179 44.605 299.214 44.277 299.241 43.842 299.259 43.3V43.3L299.338 42.285 299.657 42.012 304.538 47.715 299.104 70.877 311.238 60.491C311.668 60.122 311.994 59.72 312.217 59.284 312.439 58.857 312.422 58.38 312.165 57.855V57.855L311.544 56.545 311.863 56.272 315.801 60.873 315.482 61.146 314.453 60.528C313.988 60.25 313.559 60.205 313.166 60.392 312.769 60.583 312.355 60.863 311.924 61.232V61.232L293.003 77.428 291.462 75.628 297.834 48.874 283.423 61.21C282.993 61.579 282.682 61.954 282.492 62.336 282.301 62.728 282.315 63.18 282.535 63.693V63.693L283.041 64.945ZM301.106 90.449L295.598 81.062 295.96 80.849 296.683 81.41C297.142 81.797 297.563 81.982 297.948 81.966 298.335 81.955 298.77 81.807 299.253 81.524V81.524L318.329 70.33C318.818 70.043 319.162 69.741 319.361 69.422 319.57 69.107 319.611 68.643 319.483 68.03V68.03L319.346 67.125 319.708 66.913 325.217 76.3 324.855 76.513 324.137 75.96C323.678 75.573 323.254 75.385 322.867 75.396 322.488 75.41 322.055 75.56 321.566 75.846V75.846L302.49 87.041C302.008 87.324 301.671 87.626 301.48 87.946 301.293 88.273 301.245 88.737 301.337 89.34V89.34L301.468 90.236ZM306.341 105.989V105.989C305.36 103.432 304.993 100.919 305.237 98.449 305.491 95.982 306.412 93.749 308 91.749 309.594 89.746 311.881 88.174 314.861 87.031V87.031C317.126 86.163 319.258 85.767 321.256 85.843 323.251 85.927 325.076 86.387 326.731 87.223 328.377 88.055 329.81 89.197 331.03 90.649 332.25 92.1 333.219 93.763 333.937 95.635V95.635C334.514 97.141 334.874 98.591 335.016 99.985 335.16 101.385 335.143 102.755 334.964 104.094V104.094L330.163 106.116 330.009 105.715 332.414 102.524C332.812 102.072 333.155 101.608 333.444 101.134 333.727 100.661 333.883 100.148 333.913 99.594V99.594C333.95 99.131 333.941 98.688 333.886 98.267 333.834 97.851 333.696 97.351 333.472 96.766V96.766C332.887 95.242 331.944 94.009 330.641 93.067 329.346 92.129 327.612 91.645 325.438 91.615 323.265 91.584 320.541 92.197 317.269 93.451V93.451C314.027 94.694 311.601 96.034 309.99 97.472 308.377 98.904 307.404 100.387 307.071 101.92 306.732 103.456 306.856 104.989 307.443 106.52V106.52C307.767 107.366 308.087 108.014 308.402 108.464 308.714 108.922 309.083 109.355 309.51 109.762V109.762C309.915 110.185 310.37 110.45 310.874 110.556 311.387 110.666 311.921 110.736 312.475 110.767V110.767L317.023 111.014 317.173 111.406 311.474 113.462C310.465 112.579 309.513 111.52 308.619 110.286 307.727 109.058 306.968 107.626 306.34 105.989ZM71.886 193.699V193.699C71.042 191.334 70.76 189.018 71.041 186.753 71.321 184.488 72.212 182.454 73.712 180.652 75.219 178.847 77.353 177.452 80.114 176.467V176.467C82.216 175.716 84.183 175.399 86.015 175.516 87.847 175.634 89.514 176.093 91.017 176.893 92.513 177.696 93.808 178.776 94.901 180.133 95.988 181.493 96.841 183.042 97.462 184.78V184.78C97.959 186.173 98.261 187.512 98.366 188.798 98.465 190.086 98.415 191.342 98.215 192.566V192.566L93.76 194.327 93.629 193.959 95.91 191.075C96.287 190.665 96.612 190.245 96.883 189.816 97.162 189.39 97.32 188.92 97.356 188.405V188.405C97.395 187.981 97.396 187.577 97.358 187.194 97.312 186.807 97.193 186.344 97 185.805V185.805C96.496 184.393 95.66 183.241 94.493 182.349 93.319 181.459 91.732 180.978 89.733 180.907 87.74 180.833 85.228 181.337 82.197 182.419V182.419C79.191 183.493 76.933 184.67 75.424 185.952 73.909 187.236 72.983 188.578 72.648 189.978 72.307 191.381 72.39 192.791 72.896 194.209V194.209C73.176 194.993 73.452 195.599 73.725 196.025 74.004 196.449 74.336 196.854 74.721 197.24V197.24C75.082 197.635 75.494 197.888 75.958 197.998 76.425 198.1 76.915 198.172 77.426 198.216V198.216L81.587 198.546 81.718 198.913 76.444 200.668C75.539 199.838 74.687 198.848 73.887 197.697 73.095 196.551 72.429 195.218 71.886 193.699ZM86.302 220.725L76.911 204.312 77.249 204.119 77.92 204.668C78.371 205.039 78.762 205.214 79.095 205.192 79.425 205.165 79.816 205.022 80.267 204.764V204.764L97.894 194.677C98.345 194.419 98.669 194.146 98.864 193.857 99.057 193.563 99.102 193.146 99 192.605V192.605L98.867 191.749 99.205 191.555 104.134 200.169 103.796 200.363 103.18 199.909C102.779 199.571 102.39 199.402 102.014 199.402 101.641 199.408 101.232 199.538 100.787 199.793V199.793L81.529 210.813 84.507 216.018C84.983 216.851 85.537 217.348 86.167 217.51 86.796 217.671 87.596 217.713 88.564 217.635V217.635L92.164 217.325 92.358 217.663ZM94.276 231.37L88.229 223.413 88.539 223.177 89.257 223.61C89.711 223.91 90.115 224.034 90.469 223.982 90.819 223.925 91.201 223.74 91.615 223.425V223.425L107.785 211.137C108.198 210.822 108.484 210.509 108.64 210.198 108.793 209.881 108.777 209.453 108.594 208.915V208.915L108.369 208.107 108.679 207.871 114.727 215.828 114.417 216.064 113.704 215.639C113.246 215.334 112.841 215.207 112.486 215.259 112.136 215.316 111.754 215.501 111.341 215.816V215.816L95.171 228.104C94.757 228.419 94.481 228.733 94.343 229.047 94.209 229.366 94.217 229.795 94.367 230.334V230.334L94.586 231.134ZM100.937 238.116L96.718 233.968 96.991 233.69 98.184 234.316C98.605 234.553 99.023 234.608 99.436 234.482 99.845 234.361 100.232 234.115 100.596 233.744V233.744L113.719 220.394C113.954 219.746 114.119 219.255 114.216 218.92 114.316 218.58 114.37 218.259 114.377 217.957 114.379 217.651 114.371 217.25 114.352 216.756V216.756L114.344 215.823 114.618 215.545 119.529 220.372 116.385 242.005 126.671 231.542C127.035 231.171 127.303 230.78 127.473 230.369 127.644 229.948 127.589 229.51 127.307 229.055V229.055L126.64 227.909 126.913 227.631 130.883 231.534 130.61 231.812 129.616 231.326C129.171 231.103 128.775 231.097 128.429 231.307 128.082 231.508 127.726 231.794 127.362 232.165V232.165L111.317 248.487 109.763 246.96 113.492 221.965 101.266 234.403C100.902 234.773 100.648 235.141 100.505 235.505 100.358 235.873 100.406 236.285 100.65 236.74V236.74L101.211 237.838ZM123.906 257.881L115.804 252.028 116.032 251.712 116.845 251.918C117.367 252.072 117.789 252.073 118.113 251.921 118.431 251.765 118.743 251.476 119.047 251.054V251.054L130.939 234.591C131.243 234.169 131.425 233.787 131.484 233.443 131.538 233.096 131.398 232.691 131.066 232.229V232.229L130.616 231.522 130.844 231.206 138.946 237.058 138.718 237.374 137.913 237.174C137.386 237.016 136.961 237.013 136.637 237.165 136.319 237.322 136.007 237.611 135.703 238.032V238.032L123.811 254.496C123.507 254.917 123.334 255.298 123.294 255.638 123.259 255.983 123.391 256.391 123.692 256.863V256.863L124.134 257.565ZM138.018 266.279V266.279C135.797 265.105 134.025 263.588 132.702 261.728 131.379 259.868 130.662 257.767 130.551 255.425 130.443 253.076 131.074 250.606 132.445 248.014V248.014C133.488 246.041 134.724 244.479 136.154 243.328 137.584 242.177 139.124 241.389 140.773 240.965 142.418 240.546 144.103 240.468 145.825 240.73 147.545 240.999 149.221 241.564 150.853 242.427V242.427C152.16 243.118 153.287 243.902 154.233 244.779 155.176 245.662 155.987 246.622 156.667 247.66V247.66L154.571 251.967 154.226 251.785 153.961 248.117C153.961 247.56 153.917 247.031 153.827 246.531 153.746 246.029 153.544 245.575 153.223 245.172V245.172C152.965 244.832 152.693 244.534 152.407 244.277 152.112 244.023 151.711 243.762 151.204 243.494V243.494C149.879 242.794 148.484 242.509 147.021 242.639 145.554 242.776 144.06 243.493 142.537 244.791 141.017 246.083 139.506 248.152 138.001 250.997V250.997C136.51 253.819 135.641 256.212 135.393 258.176 135.143 260.147 135.367 261.762 136.066 263.02 136.762 264.285 137.775 265.269 139.107 265.973V265.973C139.843 266.362 140.456 266.622 140.944 266.752 141.436 266.877 141.955 266.951 142.5 266.975V266.975C143.032 267.023 143.507 266.931 143.923 266.699 144.337 266.458 144.747 266.181 145.154 265.868V265.868L148.444 263.3 148.789 263.483 146.086 268.339C144.858 268.338 143.56 268.184 142.193 267.876 140.835 267.565 139.443 267.033 138.018 266.279ZM162.384 274.837L157.138 273.659 157.223 273.279 158.256 273.152C158.801 273.063 159.247 272.904 159.592 272.674 159.938 272.444 160.257 272.086 160.551 271.598V271.598L173.423 250.908 176.641 251.631 179.28 275.958C179.356 276.563 179.488 277.04 179.676 277.389 179.866 277.732 180.204 278.064 180.692 278.385V278.385L181.115 278.644 181.03 279.025 171.376 276.857 171.461 276.476 172.078 276.42C172.658 276.332 173.044 276.118 173.236 275.779 173.435 275.441 173.513 275.001 173.471 274.459V274.459L172.915 268.587 164.489 266.695 161.464 271.639C161.162 272.159 161.005 272.588 160.99 272.926 160.981 273.272 161.22 273.606 161.708 273.927V273.927L162.47 274.457ZM171.681 255.106L164.924 265.994 172.862 267.776ZM194.646 279.68L184.068 279.299 184.082 278.909 184.871 278.667C185.389 278.526 185.741 278.305 185.925 278.005 186.103 277.698 186.201 277.285 186.219 276.766V276.766L186.954 256.39C186.972 255.87 186.897 255.451 186.729 255.132 186.56 254.812 186.22 254.553 185.707 254.355V254.355L184.979 254.018 184.993 253.629 194.442 253.969C198.304 254.108 201.072 254.915 202.746 256.389 204.419 257.863 205.215 259.755 205.131 262.065V262.065C205.078 263.544 204.673 264.886 203.916 266.092 203.159 267.298 201.952 268.235 200.294 268.902 198.63 269.569 196.413 269.852 193.643 269.752V269.752L192.315 269.705 192.057 276.856C192.02 277.868 192.503 278.549 193.504 278.898V278.898L194.66 279.29ZM192.855 254.692L192.343 268.925 193.821 268.979C195.093 269.025 196.139 268.856 196.96 268.472 197.774 268.081 198.396 267.377 198.826 266.359 199.25 265.334 199.495 263.899 199.561 262.055V262.055C199.628 260.19 199.467 258.731 199.079 257.677 198.69 256.623 198.087 255.881 197.269 255.451 196.451 255.022 195.422 254.785 194.184 254.74V254.74ZM218.126 278.258L207.643 279.72 207.589 279.334 208.324 278.959C208.81 278.73 209.118 278.451 209.247 278.124 209.369 277.791 209.393 277.367 209.322 276.852V276.852L206.505 256.658C206.433 256.144 206.286 255.744 206.065 255.458 205.843 255.173 205.463 254.977 204.923 254.871V254.871L204.148 254.666 204.094 254.28 213.458 252.974C217.286 252.44 220.152 252.753 222.056 253.914 223.961 255.074 225.072 256.799 225.392 259.089V259.089C225.596 260.554 225.431 261.947 224.895 263.266 224.359 264.585 223.333 265.717 221.816 266.662 220.293 267.608 218.159 268.272 215.414 268.655V268.655L214.097 268.839 215.086 275.927C215.226 276.93 215.819 277.516 216.865 277.687V277.687L218.072 277.872ZM212.022 253.961L213.99 268.067 215.455 267.863C216.715 267.687 217.716 267.339 218.457 266.818 219.191 266.292 219.682 265.49 219.928 264.413 220.167 263.33 220.16 261.875 219.905 260.047V260.047C219.647 258.199 219.235 256.79 218.669 255.819 218.103 254.849 217.38 254.223 216.5 253.942 215.62 253.661 214.566 253.606 213.338 253.777V253.777ZM252.397 269.126V269.126C250.07 270.071 247.769 270.453 245.494 270.27 243.219 270.087 241.148 269.285 239.283 267.864 237.416 266.436 235.93 264.365 234.826 261.649V261.649C233.986 259.581 233.584 257.629 233.622 255.794 233.661 253.959 234.047 252.273 234.782 250.737 235.52 249.208 236.543 247.868 237.852 246.717 239.163 245.573 240.674 244.653 242.384 243.958V243.958C243.754 243.401 245.079 243.042 246.359 242.882 247.641 242.727 248.898 242.724 250.13 242.87V242.87L252.081 247.245 251.72 247.392 248.74 245.237C248.314 244.878 247.88 244.572 247.44 244.32 247.003 244.059 246.526 243.921 246.01 243.908V243.908C245.584 243.887 245.181 243.904 244.8 243.958 244.416 244.02 243.958 244.16 243.427 244.375V244.375C242.039 244.94 240.924 245.825 240.083 247.029 239.244 248.241 238.833 249.846 238.847 251.847 238.86 253.842 239.472 256.33 240.684 259.311V259.311C241.885 262.268 243.159 264.472 244.505 265.925 245.853 267.384 247.233 268.25 248.647 268.525 250.063 268.805 251.468 268.662 252.863 268.095V268.095C253.635 267.781 254.228 267.479 254.642 267.188 255.053 266.892 255.444 266.542 255.813 266.141V266.141C256.192 265.764 256.426 265.341 256.516 264.873 256.598 264.401 256.65 263.909 256.672 263.396V263.396L256.821 259.225 257.182 259.078 259.163 264.272C258.373 265.211 257.42 266.106 256.305 266.955 255.194 267.795 253.891 268.518 252.397 269.126ZM277.531 254.04L267.252 260.728 267.039 260.401 268.167 259.203C268.934 258.426 269.026 257.591 268.445 256.697V256.697L256.35 238.107 253.577 239.911C252.773 240.434 252.333 241.023 252.257 241.676 252.187 242.326 252.196 243.146 252.285 244.138V244.138L252.6 247.188 252.273 247.401 248.971 241.977 267.796 229.73 271.391 234.963 271.065 235.175 268.404 233.651C267.55 233.157 266.812 232.811 266.189 232.612 265.567 232.413 264.853 232.575 264.049 233.098V233.098L261.276 234.902 273.371 253.492C273.952 254.386 274.751 254.641 275.766 254.259V254.259L277.319 253.714ZM293.865 240.737V240.737C292.456 242.117 290.963 243.087 289.388 243.65 287.817 244.207 286.199 244.239 284.531 243.745 282.864 243.251 281.159 242.113 279.416 240.332V240.332L270.029 230.738C269.339 230.033 268.525 229.92 267.587 230.4V230.4L266.812 230.837 266.539 230.558 274.248 223.016 274.52 223.295 273.93 224.306C273.407 225.144 273.518 225.944 274.264 226.706V226.706L284.308 236.972C285.995 238.696 287.601 239.618 289.127 239.738 290.657 239.854 292.1 239.248 293.458 237.92V237.92C294.863 236.545 295.553 235.017 295.529 233.334 295.5 231.657 294.706 230.02 293.144 228.424V228.424L283.156 218.216C282.793 217.844 282.411 217.574 282.013 217.404 281.609 217.24 281.178 217.289 280.718 217.553V217.553L279.857 218.074 279.584 217.795 283.478 213.986 283.75 214.264 283.189 215.191C282.911 215.612 282.853 216.014 283.013 216.398 283.174 216.781 283.436 217.159 283.8 217.53V217.53L293.767 227.717C295.09 229.07 295.977 230.514 296.427 232.051 296.876 233.587 296.886 235.102 296.455 236.595 296.029 238.084 295.166 239.465 293.865 240.737ZM306.76 208.827L301.36 217.011 300.484 216.433 305.884 208.249ZM325.158 190.162L324.159 192.861 299.513 192.612C298.961 192.607 298.494 192.69 298.111 192.86 297.725 193.037 297.371 193.343 297.046 193.777V193.777L296.43 194.551 296.064 194.415 299.958 183.899 300.324 184.034 300.232 185.29C300.17 185.899 300.311 186.304 300.657 186.503 300.996 186.699 301.466 186.813 302.066 186.843V186.843L320.086 187.367 306.044 175.985C305.553 175.583 305.124 175.321 304.757 175.199 304.384 175.075 304.023 175.265 303.673 175.768V175.768L303.066 176.63 302.7 176.495 304.595 171.377 304.961 171.513 304.884 172.614C304.831 173.12 304.922 173.527 305.157 173.834 305.391 174.141 305.721 174.469 306.146 174.818V174.818ZM69.165 144.19C69.165 142.372 70.638 140.899 72.456 140.899 74.273 140.899 75.747 142.372 75.747 144.19 75.747 146.007 74.273 147.481 72.456 147.481 70.638 147.481 69.165 146.007 69.165 144.19ZM320.785 144.19C320.785 142.372 322.258 140.899 324.075 140.899 325.893 140.899 327.366 142.372 327.366 144.19 327.366 146.007 325.893 147.481 324.075 147.481 322.258 147.481 320.785 146.007 320.785 144.19Z" fill="#77d4fc" data-fill-palette-color="primary"></path></svg></g></svg></g></svg></g><g></g></svg></g><defs></defs></svg><rect width="395.52" height="279.72" fill="none" stroke="none" visibility="hidden"></rect></g></svg></g></svg>